<svg id="SvgjsSvg1001" width="288" height="288" xmlns="http://www.w3.org/2000/svg" version="1.1" xmlns:xlink="http://www.w3.org/1999/xlink" xmlns:svgjs="http://svgjs.com/svgjs"><defs id="SvgjsDefs1002"></defs><g id="SvgjsG1008"><svg xmlns="http://www.w3.org/2000/svg" xmlns:svgjs="http://svgjs.com/svgjs" xmlns:xlink="http://www.w3.org/1999/xlink" viewBox="0 0 288 288" width="288" height="288"><rect width="100%" height="100%" fill="none"></rect><g class="currentLayer color000 svgShape" fill="#e8d403"><svg xmlns="http://www.w3.org/2000/svg" x="1.093" y="-1.639" fill="#d5d50b" viewBox="0 0 24 24" width="288" height="288"><path d="M20.36,10.176,13.826,3.642a4.719,4.719,0,0,0-3.359-1.391H6A3.754,3.754,0,0,0,2.251,6v4.466a4.719,4.719,0,0,0,1.391,3.359l6.534,6.534a4.756,4.756,0,0,0,6.718,0l3.466-3.466A4.756,4.756,0,0,0,20.36,10.176ZM19.3,15.833,15.833,19.3a3.255,3.255,0,0,1-4.6,0L4.7,12.765a3.271,3.271,0,0,1-.952-2.3V6A2.252,2.252,0,0,1,6,3.751h4.466a3.271,3.271,0,0,1,2.3.952L19.3,11.237A3.254,3.254,0,0,1,19.3,15.833ZM8.5,7.5a1,1,0,1,1-1-1A1,1,0,0,1,8.5,7.5Z" class="color41416e svgShape color000" data-name="tag-Regular" fill="#e8d403"></path></svg></g></svg></g></svg>