<?xml version="1.0" encoding="UTF-8" standalone="no" ?>
<!DOCTYPE svg PUBLIC "-//W3C//DTD SVG 1.1//EN" "http://www.w3.org/Graphics/SVG/1.1/DTD/svg11.dtd">
<svg xmlns="http://www.w3.org/2000/svg" xmlns:xlink="http://www.w3.org/1999/xlink" version="1.1" width="288" height="288" viewBox="0 0 288 288" xml:space="preserve">
<desc>Created with Fabric.js 5.3.0</desc>
<defs>
</defs>
<g transform="matrix(1 0 0 1 131.3094705141 155.7)" id="8HzS2NDFTszxSiqUx3r84"  >
<g style=""   >
		<g transform="matrix(1 0 0 1 -94 -94)" id="-TbjuvehNtziBBp__tA3O"  >
<path style="stroke: none; stroke-width: 1; stroke-dasharray: none; stroke-linecap: butt; stroke-dashoffset: 0; stroke-linejoin: miter; stroke-miterlimit: 4; fill: none; fill-rule: nonzero; opacity: 1;"  transform=" translate(-50, -50)" d="M 0 100 L 0 0 L 100 0 L 100 100 z" stroke-linecap="round" />
</g>
		<g transform="matrix(12 0 0 12 1.0899247212 -1.6450828467)" id="GDKmfeflYMrL4uf0jXUST"  >
<path style="stroke: none; stroke-width: 1; stroke-dasharray: none; stroke-linecap: butt; stroke-dashoffset: 0; stroke-linejoin: miter; stroke-miterlimit: 4; fill: rgb(232,212,3); fill-rule: nonzero; opacity: 1;"  transform=" translate(-11.9997437268, -11.9994930961)" d="M 20.36 10.176 L 13.826 3.642 C 12.937048519114377 2.748323795644792 11.727507522366693 2.2474391494774713 10.466999999999995 2.251 L 6 2.251 C 3.930626454078069 2.253754394109323 2.253754394109319 3.930626454078074 2.2510000000000003 6.000000000000005 L 2.251 10.466000000000001 C 2.247439149477473 11.726507522366699 2.7483237956447932 12.936048519114381 3.642000000000002 13.825000000000003 L 10.176 20.359 C 12.032414800799437 22.211006732011782 15.037585199200562 22.21100673201178 16.894 20.359 L 20.36 16.893 C 22.211341747100185 15.036700565493074 22.211341747100185 12.032299434506927 20.36 10.176000000000002 Z M 19.3 15.833 L 15.833 19.3 C 14.562217807502558 20.568981348875337 12.503782192497443 20.568981348875337 11.233 19.3 L 4.7 12.765 C 4.091950279158606 12.153758635640289 3.749814477428886 11.327170039024368 3.7479999999999998 10.465 L 3.748 6 C 3.7496552947931456 4.757426477461299 4.757425374911482 3.7509988974496924 6 3.7509999999999994 L 10.466000000000001 3.751 C 11.32817003902437 3.752814477428886 12.15475863564029 4.094950279158606 12.766000000000002 4.702999999999999 L 19.3 11.237 C 20.566870377124594 12.50709390462862 20.566870377124594 14.562906095371376 19.300000000000004 15.832999999999998 Z M 8.5 7.5 C 8.5 8.052284749830793 8.052284749830793 8.5 7.5 8.5 C 6.947715250169207 8.5 6.5 8.052284749830793 6.5 7.5 C 6.5 6.947715250169207 6.947715250169207 6.5 7.5 6.5 C 8.052284749830793 6.5 8.5 6.947715250169207 8.5 7.5 Z" stroke-linecap="round" />
</g>
</g>
</g>
<g transform="matrix(1 0 0 1 65.6094705141 38.8)" id="boIHQ3h8iQRK4rJip7bNp"  >
<path style="stroke: none; stroke-width: 1; stroke-dasharray: none; stroke-linecap: butt; stroke-dashoffset: 0; stroke-linejoin: miter; stroke-miterlimit: 4; fill: none; fill-rule: nonzero; opacity: 1;"  transform=" translate(-50, -50)" d="M 0 100 L 0 0 L 100 0 L 100 100 z" stroke-linecap="round" />
</g>
<g transform="matrix(12 0 0 12 161.099508376 140.132757642)" id="_XqC6AtIDHFz94wEEbth4"  >
<path style="stroke: none; stroke-width: 1; stroke-dasharray: none; stroke-linecap: butt; stroke-dashoffset: 0; stroke-linejoin: miter; stroke-miterlimit: 4; fill: rgb(232,212,3); fill-rule: nonzero; opacity: 1;"  transform=" translate(-0.0000025, -0.000009117)" d="M 8.36025 -2.53831 L 1.8262500000000008 -9.07231 C 0.9373000000000008 -9.96599 -0.27223999999999915 -10.46687 -1.5327499999999992 -10.46331 L -5.999749999999999 -10.46331 C -8.069119999999998 -10.46056 -9.745999999999999 -8.78368 -9.74875 -6.714309999999999 L -5.223879999999999 -8.01131 L -4.182079999999999 -7.58199 C -4.183409999999999 -7.1111 -1.9894499999999993 -7.339440000000001 -1.1564199999999993 -7.01351 C 0.24044000000000065 -6.46697 0.34910000000000063 -4.57951 0.9089200000000006 -4.0226500000000005 L 6.19922 1.2972699999999993 L 6.19922 4.17869 L 5.25276 5.521089999999999 L 1.8262500000000004 8.108649999999999 L -0.6670799999999995 9.744699999999998 C 1.1893300000000004 11.596709999999998 3.0378400000000005 9.496709999999998 4.89425 7.6446999999999985 L 8.36025 4.178699999999998 C 10.211590000000001 2.3223999999999982 10.211590000000001 -0.6820000000000013 8.36025 -2.5383000000000013 z M 7.30025 3.11869 L 3.83325 6.58569 C 3.50346 6.915019999999999 5.02427 6.3285599999999995 5.61256 4.8362099999999995 C 6.31888 3.0444499999999994 6.03416 0.15287999999999968 4.310700000000001 -1.272710000000001 C 3.2170000000000005 -2.1773800000000008 3.1185600000000004 -4.87687 0.4662500000000005 -4.865350000000001 C -0.8198799999999995 -4.859760000000001 -0.3578899999999995 -5.375780000000002 -0.4691299999999995 -5.605730000000001 C -0.6260699999999995 -5.930170000000001 -0.9995099999999995 -6.015380000000001 -0.9997499999999995 -6.132010000000001 L -2.4824999999999995 -7.581990000000001 L -7.9575 -7.581990000000001 C -7.955839999999999 -8.824560000000002 -7.242319999999999 -8.963310000000002 -5.99975 -8.963310000000002 L -1.5337499999999995 -8.963310000000002 C -0.6715799999999995 -8.961500000000001 0.15501000000000054 -8.619360000000002 0.7662500000000003 -8.011310000000002 L 7.30025 -1.477310000000002 C 8.56712 -0.20722000000000196 8.56712 1.848599999999998 7.30025 3.118689999999998 z" stroke-linecap="round" />
</g>
<g transform="matrix(1 0 0 1 86.5094705141 39.3)" id="iqIEWcHG-IQEY1V_pKpp5"  >
<path style="stroke: none; stroke-width: 1; stroke-dasharray: none; stroke-linecap: butt; stroke-dashoffset: 0; stroke-linejoin: miter; stroke-miterlimit: 4; fill: none; fill-rule: nonzero; opacity: 1;"  transform=" translate(-50, -50)" d="M 0 100 L 0 0 L 100 0 L 100 100 z" stroke-linecap="round" />
</g>
</svg>