<svg id="SvgjsSvg1011" width="288" height="288" xmlns="http://www.w3.org/2000/svg" version="1.1" xmlns:xlink="http://www.w3.org/1999/xlink" xmlns:svgjs="http://svgjs.com/svgjs"><defs id="SvgjsDefs1012"></defs><g id="SvgjsG1013"><svg xmlns="http://www.w3.org/2000/svg" viewBox="0 0 24 24" width="288" height="288"><path fill="#0026af" d="M17,7.25H12.8a.747.747,0,0,1-.624-.334l-1.11-1.664a2.246,2.246,0,0,0-1.872-1H7A4.756,4.756,0,0,0,2.25,9v7A4.756,4.756,0,0,0,7,20.75H17A4.756,4.756,0,0,0,21.75,16V12A4.756,4.756,0,0,0,17,7.25ZM20.25,16A3.254,3.254,0,0,1,17,19.25H7A3.254,3.254,0,0,1,3.75,16V9A3.254,3.254,0,0,1,7,5.75H9.2a.747.747,0,0,1,.624.334l1.11,1.664a2.246,2.246,0,0,0,1.872,1H17A3.254,3.254,0,0,1,20.25,12Z" data-name="folder-Regular" class="color41416e svgShape"></path></svg></g></svg>