<svg xmlns="http://www.w3.org/2000/svg" xmlns:xlink="http://www.w3.org/1999/xlink" xmlns:lucid="lucid" width="2121" height="1186"><g transform="translate(-160 161)" lucid:page-tab-id="0_0"><path d="M0-1258.84h3677.73v2581.68H0z" fill="#fff"/><path d="M180 464a6 6 0 0 1 6-6h308a6 6 0 0 1 6 6v535a6 6 0 0 1-6 6H186a6 6 0 0 1-6-6z" fill="#f5fbff"/><path d="M180 537v40h320v-40M180 615v40h320v-40M180 693v40h320v-40M180 771v40h320v-40M180 849v40h320v-40M180 927v40h320v-40" fill="#dde2e6"/><path d="M180 498v-34a6 6 0 0 1 6-6h308a6 6 0 0 1 6 6v34" fill="#fff7a1"/><path d="M180 464a6 6 0 0 1 6-6h308a6 6 0 0 1 6 6v535a6 6 0 0 1-6 6H186a6 6 0 0 1-6-6zM180 498h320M388.85 498v507" stroke="#4881b3" stroke-width="3" fill="none"/><use xlink:href="#a" transform="matrix(1,0,0,1,190,458) translate(126.29557291666667 28.35503472222222)"/><use xlink:href="#b" transform="matrix(1,0,0,1,185,500.5) translate(89.64105902777777 25.35503472222222)"/><use xlink:href="#c" transform="matrix(1,0,0,1,393.8460019093685,500.5) translate(9.338216145833336 25.35503472222222)"/><use xlink:href="#d" transform="matrix(1,0,0,1,185,539.5) translate(45.812934027777764 25.35503472222222)"/><use xlink:href="#e" transform="matrix(1,0,0,1,393.8460019093685,539.5) translate(20.002821180555557 25.35503472222222)"/><use xlink:href="#f" transform="matrix(1,0,0,1,185,578.5) translate(72.99663628472223 25.35503472222222)"/><use xlink:href="#e" transform="matrix(1,0,0,1,393.8460019093685,578.5) translate(20.002821180555557 25.35503472222222)"/><use xlink:href="#g" transform="matrix(1,0,0,1,185,617.5) translate(14.392035590277786 25.35503472222222)"/><use xlink:href="#e" transform="matrix(1,0,0,1,393.8460019093685,617.5) translate(20.002821180555557 25.35503472222222)"/><use xlink:href="#h" transform="matrix(1,0,0,1,185,656.5) translate(41.76671006944444 25.35503472222222)"/><use xlink:href="#e" transform="matrix(1,0,0,1,393.8460019093685,656.5) translate(20.002821180555557 25.35503472222222)"/><use xlink:href="#i" transform="matrix(1,0,0,1,185,695.5) translate(43.49739583333334 25.35503472222222)"/><use xlink:href="#e" transform="matrix(1,0,0,1,393.8460019093685,695.5) translate(20.002821180555557 25.35503472222222)"/><use xlink:href="#j" transform="matrix(1,0,0,1,185,734.5) translate(69.73220486111111 25.35503472222222)"/><use xlink:href="#e" transform="matrix(1,0,0,1,393.8460019093685,734.5) translate(20.002821180555557 25.35503472222222)"/><use xlink:href="#k" transform="matrix(1,0,0,1,185,773.5) translate(46.48730468750001 25.35503472222222)"/><use xlink:href="#e" transform="matrix(1,0,0,1,393.8460019093685,773.5) translate(20.002821180555557 25.35503472222222)"/><use xlink:href="#l" transform="matrix(1,0,0,1,185,812.5) translate(49.65625 25.35503472222222)"/><use xlink:href="#e" transform="matrix(1,0,0,1,393.8460019093685,812.5) translate(20.002821180555557 25.35503472222222)"/><use xlink:href="#m" transform="matrix(1,0,0,1,185,851.5) translate(52.5148654513889 25.35503472222222)"/><use xlink:href="#e" transform="matrix(1,0,0,1,393.8460019093685,851.5) translate(20.002821180555557 25.35503472222222)"/><use xlink:href="#n" transform="matrix(1,0,0,1,185,890.5) translate(65.11306423611111 25.35503472222222)"/><use xlink:href="#e" transform="matrix(1,0,0,1,393.8460019093685,890.5) translate(20.002821180555557 25.35503472222222)"/><use xlink:href="#o" transform="matrix(1,0,0,1,185,929.5) translate(40.50748697916667 25.35503472222222)"/><use xlink:href="#e" transform="matrix(1,0,0,1,393.8460019093685,929.5) translate(20.002821180555557 25.35503472222222)"/><use xlink:href="#p" transform="matrix(1,0,0,1,185,968.5) translate(7.869140625 25.35503472222222)"/><use xlink:href="#e" transform="matrix(1,0,0,1,393.8460019093685,968.5) translate(20.002821180555557 25.35503472222222)"/><path d="M1480 625a6 6 0 0 1 6-6h288a6 6 0 0 1 6 6v67a6 6 0 0 1-6 6h-288a6 6 0 0 1-6-6z" fill="#f5fbff"/><path d="M1480 659v-34a6 6 0 0 1 6-6h288a6 6 0 0 1 6 6v34" fill="#ff8f8f"/><path d="M1480 625a6 6 0 0 1 6-6h288a6 6 0 0 1 6 6v67a6 6 0 0 1-6 6h-288a6 6 0 0 1-6-6zM1480 659h300M1680.57 659v39" stroke="#4881b3" stroke-width="3" fill="none"/><use xlink:href="#q" transform="matrix(1,0,0,1,1490,619) translate(91.70193142361111 28.35503472222222)"/><use xlink:href="#r" transform="matrix(1,0,0,1,1485,661.5) translate(64.92057291666667 25.35503472222222)"/><use xlink:href="#e" transform="matrix(1,0,0,1,1685.569120488505,661.5) translate(14.002821180555557 25.35503472222222)"/><path d="M1580 246a6 6 0 0 1 6-6h248a6 6 0 0 1 6 6v106a6 6 0 0 1-6 6h-248a6 6 0 0 1-6-6z" fill="#f5fbff"/><path d="M1580 319v33a6 6 0 0 0 6 6h248a6 6 0 0 0 6-6v-33" fill="#dde2e6"/><path d="M1580 280v-34a6 6 0 0 1 6-6h248a6 6 0 0 1 6 6v34" fill="#c3f7c8"/><path d="M1580 246a6 6 0 0 1 6-6h248a6 6 0 0 1 6 6v106a6 6 0 0 1-6 6h-248a6 6 0 0 1-6-6zM1580 280h260M1726.44 280v78" stroke="#4881b3" stroke-width="3" fill="none"/><use xlink:href="#s" transform="matrix(1,0,0,1,1590,240) translate(78.59483506944446 28.35503472222222)"/><use xlink:href="#b" transform="matrix(1,0,0,1,1585,282.5) translate(58.64105902777778 25.35503472222222)"/><use xlink:href="#c" transform="matrix(1,0,0,1,1731.436728988552,282.5) translate(10.338216145833336 25.35503472222222)"/><use xlink:href="#r" transform="matrix(1,0,0,1,1585,321.5) translate(37.92057291666667 25.35503472222222)"/><use xlink:href="#e" transform="matrix(1,0,0,1,1731.436728988552,321.5) translate(21.002821180555557 25.35503472222222)"/><path d="M1260 386a6 6 0 0 1 6-6h188a6 6 0 0 1 6 6v145a6 6 0 0 1-6 6h-188a6 6 0 0 1-6-6z" fill="#f5fbff"/><path d="M1260 459v40h200v-40" fill="#dde2e6"/><path d="M1260 420v-34a6 6 0 0 1 6-6h188a6 6 0 0 1 6 6v34" fill="#cfe4ff"/><path d="M1260 386a6 6 0 0 1 6-6h188a6 6 0 0 1 6 6v145a6 6 0 0 1-6 6h-188a6 6 0 0 1-6-6zM1260 420h200M1360 420v117" stroke="#4881b3" stroke-width="3" fill="none"/><use xlink:href="#t" transform="matrix(1,0,0,1,1270,380) translate(29.06792534722223 28.35503472222222)"/><use xlink:href="#b" transform="matrix(1,0,0,1,1265,422.5) translate(35.14105902777778 25.35503472222222)"/><use xlink:href="#c" transform="matrix(1,0,0,1,1365,422.5) translate(3.3382161458333357 25.35503472222222)"/><use xlink:href="#r" transform="matrix(1,0,0,1,1265,461.5) translate(14.420572916666671 25.35503472222222)"/><use xlink:href="#e" transform="matrix(1,0,0,1,1365,461.5) translate(14.002821180555557 25.35503472222222)"/><use xlink:href="#u" transform="matrix(1,0,0,1,1265,500.5) translate(10.529513888888893 25.35503472222222)"/><use xlink:href="#v" transform="matrix(1,0,0,1,1365,500.5) translate(3.3382161458333357 25.35503472222222)"/><path d="M1200-54a6 6 0 0 1 6-6h268a6 6 0 0 1 6 6V52a6 6 0 0 1-6 6h-268a6 6 0 0 1-6-6z" fill="#f5fbff"/><path d="M1200 19v33a6 6 0 0 0 6 6h268a6 6 0 0 0 6-6V19" fill="#dde2e6"/><path d="M1200-20v-34a6 6 0 0 1 6-6h268a6 6 0 0 1 6 6v34" fill="#ced4db"/><path d="M1200-54a6 6 0 0 1 6-6h268a6 6 0 0 1 6 6V52a6 6 0 0 1-6 6h-268a6 6 0 0 1-6-6zM1200-20h280M1384.94-20v78" stroke="#4881b3" stroke-width="3" fill="none"/><use xlink:href="#w" transform="matrix(1,0,0,1,1210,-60) translate(34.9435763888889 28.35503472222222)"/><use xlink:href="#x" transform="matrix(1,0,0,1,1205,-17.5) translate(3.448350694444457 25.35503472222222)"/><use xlink:href="#e" transform="matrix(1,0,0,1,1389.9414830734124,-17.5) translate(12.002821180555557 25.35503472222222)"/><use xlink:href="#y" transform="matrix(1,0,0,1,1205,21.5) translate(30.262044270833336 25.35503472222222)"/><use xlink:href="#c" transform="matrix(1,0,0,1,1389.9414830734124,21.5) translate(1.3382161458333357 25.35503472222222)"/><path d="M420 66a6 6 0 0 1 6-6h288a6 6 0 0 1 6 6v145a6 6 0 0 1-6 6H426a6 6 0 0 1-6-6z" fill="#f5fbff"/><path d="M420 139v40h300v-40" fill="#dde2e6"/><path d="M420 100V66a6 6 0 0 1 6-6h288a6 6 0 0 1 6 6v34" fill="#ced4db"/><path d="M420 66a6 6 0 0 1 6-6h288a6 6 0 0 1 6 6v145a6 6 0 0 1-6 6H426a6 6 0 0 1-6-6zM420 100h300M616.33 100v117" stroke="#4881b3" stroke-width="3" fill="none"/><use xlink:href="#z" transform="matrix(1,0,0,1,430,60) translate(32.309570312500014 28.35503472222222)"/><use xlink:href="#A" transform="matrix(1,0,0,1,425,102.5) translate(9.448350694444457 25.35503472222222)"/><use xlink:href="#e" transform="matrix(1,0,0,1,621.3270125207024,102.5) translate(16.002821180555557 25.35503472222222)"/><use xlink:href="#B" transform="matrix(1,0,0,1,425,141.5) translate(36.262044270833336 25.35503472222222)"/><use xlink:href="#e" transform="matrix(1,0,0,1,621.3270125207024,141.5) translate(16.002821180555557 25.35503472222222)"/><use xlink:href="#C" transform="matrix(1,0,0,1,425,180.5) translate(16.8246527777778 25.35503472222222)"/><use xlink:href="#D" transform="matrix(1,0,0,1,621.3270125207024,180.5) translate(16.002821180555557 25.35503472222222)"/><path d="M840 586a6 6 0 0 1 6-6h288a6 6 0 0 1 6 6v106a6 6 0 0 1-6 6H846a6 6 0 0 1-6-6z" fill="#f5fbff"/><path d="M840 659v33a6 6 0 0 0 6 6h288a6 6 0 0 0 6-6v-33" fill="#dde2e6"/><path d="M840 620v-34a6 6 0 0 1 6-6h288a6 6 0 0 1 6 6v34" fill="#ced4db"/><path d="M840 586a6 6 0 0 1 6-6h288a6 6 0 0 1 6 6v106a6 6 0 0 1-6 6H846a6 6 0 0 1-6-6zM840 620h300M1031.13 620v78" stroke="#4881b3" stroke-width="3" fill="none"/><use xlink:href="#E" transform="matrix(1,0,0,1,850,580) translate(62.644314236111114 28.35503472222222)"/><use xlink:href="#F" transform="matrix(1,0,0,1,845,622.5) translate(51.97601996527778 25.35503472222222)"/><use xlink:href="#c" transform="matrix(1,0,0,1,1036.1250202130802,622.5) translate(7.838216145833336 25.35503472222222)"/><use xlink:href="#x" transform="matrix(1,0,0,1,845,661.5) translate(6.948350694444457 25.35503472222222)"/><use xlink:href="#e" transform="matrix(1,0,0,1,1036.1250202130802,661.5) translate(18.502821180555557 25.35503472222222)"/><path d="M1558.5 299.5H1076a6 6 0 0 1-6-6V164.7a6 6 0 0 0-6-6H760.5" stroke="#224c72" stroke-width="2" fill="none"/><path d="M1568.5 289.5v20M1578.5 299.5h-20M1558.5 289.5v20" stroke="#224c72" stroke-width="2" fill="#fff"/><path d="M721.95 148.7l20 10-20 10" stroke="#224c72" stroke-width="2" fill="#fff" fill-opacity="0"/><path d="M721.95 158.7h20M761.95 158.7c0 5.52-4.48 10-10 10-5.53 0-10-4.48-10-10s4.47-10 10-10c5.52 0 10 4.48 10 10" stroke="#224c72" stroke-width="2" fill="#fff"/><path d="M1238.5 439.5H996a6 6 0 0 1-6-6V204.1a6 6 0 0 0-6-6H760.5" stroke="#224c72" stroke-width="2" fill="none"/><path d="M1248.5 429.5v20M1258.5 439.5h-20M1238.5 429.5v20" stroke="#224c72" stroke-width="2" fill="#fff"/><path d="M721.95 188.1l20 10-20 10" stroke="#224c72" stroke-width="2" fill="#fff" fill-opacity="0"/><path d="M721.95 198.1h20M761.95 198.1c0 5.5-4.48 10-10 10-5.53 0-10-4.5-10-10 0-5.53 4.47-10 10-10 5.52 0 10 4.47 10 10" stroke="#224c72" stroke-width="2" fill="#fff"/><path d="M521.5 517.4H664a6 6 0 0 1 6 6v110.1a6 6 0 0 0 6 6h142.5" stroke="#224c72" stroke-width="2" fill="none"/><path d="M511.5 527.4v-20M501.5 517.4h20M521.5 527.4v-20M828.5 629.5v20M838.5 639.5h-20M818.5 629.5v20" stroke="#224c72" stroke-width="2" fill="#fff"/><path d="M1458.5 678.5h-148.3a.2.2 0 0 0-.2.2.2.2 0 0 1-.2.2h-149.48" stroke="#224c72" stroke-width="2" fill="none"/><path d="M1468.5 668.5v20M1478.5 678.5h-20M1458.5 668.5v20" stroke="#224c72" stroke-width="2" fill="#fff"/><path d="M1141.95 668.9l20 10-20 10" stroke="#224c72" stroke-width="2" fill="#fff" fill-opacity="0"/><path d="M1141.95 678.9h20" stroke="#224c72" stroke-width="2" fill="#fff"/><path d="M1801.5 678.5H2084a6 6 0 0 0 6-6V5.5a6 6 0 0 0-6-6h-583.68" stroke="#224c72" stroke-width="2" fill="none"/><path d="M1791.5 688.5v-20M1781.5 678.5h20M1801.5 688.5v-20" stroke="#224c72" stroke-width="2" fill="#fff"/><path d="M1481.95-10.5l20 10-20 10" stroke="#224c72" stroke-width="2" fill="#fff" fill-opacity="0"/><path d="M1481.95-.5h20" stroke="#224c72" stroke-width="2" fill="#fff"/><path d="M1861.5 299.5H1974a6 6 0 0 0 6-6V44.93a6 6 0 0 0-6-6h-473.68" stroke="#224c72" stroke-width="2" fill="none"/><path d="M1851.5 309.5v-20M1841.5 299.5h20M1861.5 309.5v-20" stroke="#224c72" stroke-width="2" fill="#fff"/><path d="M1481.95 28.92l20 10-20 10" stroke="#224c72" stroke-width="2" fill="#fff" fill-opacity="0"/><path d="M1481.95 38.92h20" stroke="#224c72" stroke-width="2" fill="#fff"/><path d="M1801.5 678.7H2264a6 6 0 0 0 6-6V-144a6 6 0 0 0-6-6H806a6 6 0 0 0-6 6v257.5a6 6 0 0 1-6 6h-33.5" stroke="#224c72" stroke-width="2" fill="none"/><path d="M1801.5 688.7v-20M1781.5 678.7h20" stroke="#224c72" stroke-width="2" fill="#fff"/><path d="M721.95 109.5l20 10-20 10" stroke="#224c72" stroke-width="2" fill="#fff" fill-opacity="0"/><path d="M721.95 119.5h20M761.95 119.5c0 5.52-4.48 10-10 10-5.53 0-10-4.48-10-10s4.47-10 10-10c5.52 0 10 4.48 10 10" stroke="#224c72" stroke-width="2" fill="#fff"/><defs><path fill="#1d262b" d="M673-112C593-22 494 21 375 20 162 19 39-156 77-382l117-700h282L357-379c-13 97 22 165 110 165 87 0 160-31 217-101l135-767h284L915 0H652" id="G"/><path fill="#1d262b" d="M441-187c96 2 175-42 189-118 11-53-26-94-111-116l-91-23c-215-59-318-164-314-314 5-210 225-344 450-344 228 0 410 131 411 350l-280-1c1-93-45-140-138-141-86-1-156 50-174 122-16 64 71 103 161 122 160 35 255 75 324 181 63 97 40 247-30 331C759-44 600 20 431 20 206 20 8-127 9-346l266 2c3 103 58 156 166 157" id="H"/><path fill="#1d262b" d="M340-447c-8 135 73 231 201 233 103 2 193-37 270-119l129 160C868-58 700 25 517 20 208 12 29-210 63-541c22-216 137-405 290-493 81-47 170-68 268-68 279 0 436 237 398 532l-16 123H340zm366-389c-67-51-176-40-238 16-39 35-76 93-108 177h388c21-73 4-158-42-193" id="I"/><path fill="#1d262b" d="M744-811c-150-29-255 1-334 103L285 0H3l188-1082 265-1-26 132c92-129 188-180 350-139" id="J"/><g id="a"><use transform="matrix(0.011935763888888886,0,0,0.011935763888888886,0,0)" xlink:href="#G"/><use transform="matrix(0.011935763888888886,0,0,0.011935763888888886,13.39192708333333,0)" xlink:href="#H"/><use transform="matrix(0.011935763888888886,0,0,0.011935763888888886,25.69769965277777,0)" xlink:href="#I"/><use transform="matrix(0.011935763888888886,0,0,0.011935763888888886,38.63606770833333,0)" xlink:href="#J"/></g><path fill="#1d262b" d="M341 0H156v-1082h185V0zm-91-1264c-68 0-108-42-109-105 0-62 41-107 109-107s110 44 110 107-42 105-110 105" id="K"/><path fill="#1d262b" d="M520 20C244 20 95-247 95-550c0-298 151-550 427-552 127 0 227 43 301 130v-564h185V0H838l-9-116C755-25 652 20 520 20zm48-965c-210 0-288 177-288 416 0 218 87 392 286 392 117 0 203-53 257-158v-497c-55-102-140-153-255-153" id="L"/><g id="b"><use transform="matrix(0.011935763888888888,0,0,0.011935763888888888,0,0)" xlink:href="#K"/><use transform="matrix(0.011935763888888888,0,0,0.011935763888888888,5.932074652777778,0)" xlink:href="#L"/></g><path fill="#1d262b" d="M589-945c-131 0-219 81-264 174V0H140v-1082h175l6 136c83-104 191-156 324-156 229 0 346 129 346 387V0H806v-716c-2-153-65-229-217-229" id="M"/><path fill="#1d262b" d="M491 20c-241-1-355-148-355-398v-704h185v699c0 164 67 246 200 246 141 0 235-53 282-158v-787h185V0H812l-4-107C736-22 630 20 491 20" id="N"/><path fill="#1d262b" d="M1240-945c-141 0-250 95-250 227V0H804v-709c0-157-77-236-231-236-121 0-204 52-249 155V0H139v-1082h175l5 120c79-93 186-140 321-140 151 0 254 58 309 174 69-98 181-174 345-174 237 0 362 126 362 377V0h-185v-714c-2-159-67-231-231-231" id="O"/><path fill="#1d262b" d="M634-1102c292 0 422 254 422 573 0 298-143 547-420 549-137 0-242-48-317-145L310 0H140v-1536h185v573c75-93 178-139 309-139zm-44 965c207 0 281-175 281-413 0-224-79-395-283-395-122 0-210 57-263 170v468c57 113 145 170 265 170" id="P"/><path fill="#1d262b" d="M599-131c141 0 220-65 285-146l113 88C906-50 770 20 589 20 281 21 93-214 93-545c0-223 93-397 233-485 74-48 154-72 240-72 300 2 449 218 445 537v77H278c0 197 129 357 321 357zm227-509c-3-180-88-310-260-310-170 0-264 140-282 310h542" id="Q"/><path fill="#1d262b" d="M663-916c-163-27-288 18-338 148V0H140v-1082h180l3 125c61-97 147-145 258-145 36 0 63 5 82 14v172" id="R"/><g id="c"><use transform="matrix(0.011935763888888888,0,0,0.011935763888888888,0,0)" xlink:href="#M"/><use transform="matrix(0.011935763888888888,0,0,0.011935763888888888,13.487413194444443,0)" xlink:href="#N"/><use transform="matrix(0.011935763888888888,0,0,0.011935763888888888,26.962890625,0)" xlink:href="#O"/><use transform="matrix(0.011935763888888888,0,0,0.011935763888888888,48.38758680555556,0)" xlink:href="#P"/><use transform="matrix(0.011935763888888888,0,0,0.011935763888888888,62.101779513888886,0)" xlink:href="#Q"/><use transform="matrix(0.011935763888888888,0,0,0.011935763888888888,75.05208333333333,0)" xlink:href="#R"/></g><path fill="#1d262b" d="M920 151H4V0h916v151" id="S"/><path fill="#1d262b" d="M456 20C285 20 205-92 206-268v-671H9v-143h197v-262h185v262h202v143H391v671c-9 125 92 149 207 118V0c-49 13-96 20-142 20" id="T"/><path fill="#1d262b" d="M538-131c121 0 232-49 232-156 0-50-20-88-56-117-73-60-334-92-420-143-92-55-162-110-162-238 0-190 192-317 400-317 223 0 414 129 413 338H759c0-108-110-186-227-186-119 0-215 53-215 159 0 45 18 78 53 101 76 52 331 90 416 139 98 57 169 115 169 251C955-92 760 20 538 20c-176 0-314-68-386-174-38-55-57-115-57-179h185c6 129 116 202 258 202" id="U"/><path fill="#1d262b" d="M584 20C278 26 81-227 91-551c10-320 175-545 491-551 308-5 503 247 494 573-9 322-175 543-492 549zm-2-970c-208 0-305 185-305 421 0 216 106 398 307 398 211 0 307-186 307-420 0-214-109-399-309-399" id="V"/><g id="d"><use transform="matrix(0.011935763888888888,0,0,0.011935763888888888,0,0)" xlink:href="#K"/><use transform="matrix(0.011935763888888888,0,0,0.011935763888888888,5.932074652777778,0)" xlink:href="#L"/><use transform="matrix(0.011935763888888888,0,0,0.011935763888888888,19.717881944444443,0)" xlink:href="#S"/><use transform="matrix(0.011935763888888888,0,0,0.011935763888888888,30.746527777777775,0)" xlink:href="#T"/><use transform="matrix(0.011935763888888888,0,0,0.011935763888888888,38.73155381944444,0)" xlink:href="#R"/><use transform="matrix(0.011935763888888888,0,0,0.011935763888888888,47.00303819444444,0)" xlink:href="#N"/><use transform="matrix(0.011935763888888888,0,0,0.011935763888888888,60.47851562499999,0)" xlink:href="#U"/><use transform="matrix(0.011935763888888888,0,0,0.011935763888888888,73.08268229166667,0)" xlink:href="#T"/><use transform="matrix(0.011935763888888888,0,0,0.011935763888888888,80.82899305555557,0)" xlink:href="#V"/><use transform="matrix(0.011935763888888888,0,0,0.011935763888888888,94.7699652777778,0)" xlink:href="#U"/></g><path fill="#1d262b" d="M521 20C240 20 96-239 96-550c0-303 147-552 427-552 132 0 235 47 309 140l9-120h169V-26c4 277-183 454-459 452-165-1-334-81-400-187l96-111c79 98 176 147 291 147 180 1 288-109 286-290v-93C750-23 649 20 521 20zm48-965c-209 0-287 178-287 416 0 217 86 392 285 392 117 0 202-53 257-159v-494c-57-103-142-155-255-155" id="W"/><g id="e"><use transform="matrix(0.011935763888888888,0,0,0.011935763888888888,0,0)" xlink:href="#U"/><use transform="matrix(0.011935763888888888,0,0,0.011935763888888888,12.604166666666666,0)" xlink:href="#T"/><use transform="matrix(0.011935763888888888,0,0,0.011935763888888888,20.589192708333332,0)" xlink:href="#R"/><use transform="matrix(0.011935763888888888,0,0,0.011935763888888888,28.860677083333332,0)" xlink:href="#K"/><use transform="matrix(0.011935763888888888,0,0,0.011935763888888888,34.79275173611111,0)" xlink:href="#M"/><use transform="matrix(0.011935763888888888,0,0,0.011935763888888888,48.28016493055555,0)" xlink:href="#W"/></g><path fill="#1d262b" d="M341 0H156v-1536h185V0" id="X"/><g id="f"><use transform="matrix(0.011935763888888888,0,0,0.011935763888888888,0,0)" xlink:href="#X"/><use transform="matrix(0.011935763888888888,0,0,0.011935763888888888,5.932074652777778,0)" xlink:href="#V"/><use transform="matrix(0.011935763888888888,0,0,0.011935763888888888,19.873046875,0)" xlink:href="#W"/><use transform="matrix(0.011935763888888888,0,0,0.011935763888888888,33.58723958333333,0)" xlink:href="#K"/><use transform="matrix(0.011935763888888888,0,0,0.011935763888888888,39.51931423611111,0)" xlink:href="#M"/></g><path fill="#1d262b" d="M632-1102c291 0 422 251 422 573 0 297-141 548-419 549-131 0-235-42-310-125v521H140v-1498h169l9 120c75-93 180-140 314-140zm-53 971c207 0 290-180 290-419 0-218-92-395-292-395-112 0-196 50-252 149v517c55 99 140 148 254 148" id="Y"/><path fill="#1d262b" d="M561-1102c238-4 403 126 403 351v498c0 99 13 178 38 237V0H808c-11-21-19-59-26-114C696-25 593 20 474 20c-199 0-368-130-365-320 4-251 214-359 490-356h180v-85c-1-135-86-212-229-212-115 0-232 67-233 171H131c20-205 206-316 430-320zM294-326c0 117 90 185 207 185 122 0 239-75 278-162v-222H634c-227 0-340 66-340 199" id="Z"/><path fill="#1d262b" d="M1098-255l208-827h185L1176 0h-150L763-820 507 0H357L43-1082h184l213 810 252-810h149" id="aa"/><path fill="#1d262b" d="M589-945c-131 0-219 81-264 174V0H140v-1536h185v585c82-101 189-151 320-151 229 0 346 129 346 387V0H806v-716c-2-153-65-229-217-229" id="ab"/><g id="g"><use transform="matrix(0.011935763888888888,0,0,0.011935763888888888,0,0)" xlink:href="#Y"/><use transform="matrix(0.011935763888888888,0,0,0.011935763888888888,13.714192708333332,0)" xlink:href="#Z"/><use transform="matrix(0.011935763888888888,0,0,0.011935763888888888,27.010633680555554,0)" xlink:href="#U"/><use transform="matrix(0.011935763888888888,0,0,0.011935763888888888,39.61480034722222,0)" xlink:href="#U"/><use transform="matrix(0.011935763888888888,0,0,0.011935763888888888,52.218967013888886,0)" xlink:href="#aa"/><use transform="matrix(0.011935763888888888,0,0,0.011935763888888888,70.58810763888889,0)" xlink:href="#V"/><use transform="matrix(0.011935763888888888,0,0,0.011935763888888888,84.52907986111111,0)" xlink:href="#R"/><use transform="matrix(0.011935763888888888,0,0,0.011935763888888888,92.57378472222223,0)" xlink:href="#L"/><use transform="matrix(0.011935763888888888,0,0,0.011935763888888888,106.3595920138889,0)" xlink:href="#S"/><use transform="matrix(0.011935763888888888,0,0,0.011935763888888888,117.38823784722224,0)" xlink:href="#ab"/><use transform="matrix(0.011935763888888888,0,0,0.011935763888888888,130.85177951388889,0)" xlink:href="#Z"/><use transform="matrix(0.011935763888888888,0,0,0.011935763888888888,144.14822048611111,0)" xlink:href="#U"/><use transform="matrix(0.011935763888888888,0,0,0.011935763888888888,156.75238715277777,0)" xlink:href="#ab"/></g><path fill="#1d262b" d="M704-1390c-164-38-297 28-288 194v114h231v143H416V0H231v-939H60v-143h171v-111c-12-274 208-416 483-347" id="ac"/><g id="h"><use transform="matrix(0.011935763888888888,0,0,0.011935763888888888,0,0)" xlink:href="#ac"/><use transform="matrix(0.011935763888888888,0,0,0.011935763888888888,8.486328125,0)" xlink:href="#K"/><use transform="matrix(0.011935763888888888,0,0,0.011935763888888888,14.41840277777778,0)" xlink:href="#R"/><use transform="matrix(0.011935763888888888,0,0,0.011935763888888888,22.68988715277778,0)" xlink:href="#U"/><use transform="matrix(0.011935763888888888,0,0,0.011935763888888888,35.29405381944444,0)" xlink:href="#T"/><use transform="matrix(0.011935763888888888,0,0,0.011935763888888888,43.27907986111111,0)" xlink:href="#S"/><use transform="matrix(0.011935763888888888,0,0,0.011935763888888888,54.30772569444444,0)" xlink:href="#M"/><use transform="matrix(0.011935763888888888,0,0,0.011935763888888888,67.79513888888889,0)" xlink:href="#Z"/><use transform="matrix(0.011935763888888888,0,0,0.011935763888888888,81.09157986111111,0)" xlink:href="#O"/><use transform="matrix(0.011935763888888888,0,0,0.011935763888888888,102.51627604166669,0)" xlink:href="#Q"/></g><g id="i"><use transform="matrix(0.011935763888888888,0,0,0.011935763888888888,0,0)" xlink:href="#X"/><use transform="matrix(0.011935763888888888,0,0,0.011935763888888888,5.932074652777778,0)" xlink:href="#Z"/><use transform="matrix(0.011935763888888888,0,0,0.011935763888888888,19.228515625,0)" xlink:href="#U"/><use transform="matrix(0.011935763888888888,0,0,0.011935763888888888,31.832682291666664,0)" xlink:href="#T"/><use transform="matrix(0.011935763888888888,0,0,0.011935763888888888,39.81770833333333,0)" xlink:href="#S"/><use transform="matrix(0.011935763888888888,0,0,0.011935763888888888,50.84635416666665,0)" xlink:href="#M"/><use transform="matrix(0.011935763888888888,0,0,0.011935763888888888,64.3337673611111,0)" xlink:href="#Z"/><use transform="matrix(0.011935763888888888,0,0,0.011935763888888888,77.63020833333331,0)" xlink:href="#O"/><use transform="matrix(0.011935763888888888,0,0,0.011935763888888888,99.05490451388886,0)" xlink:href="#Q"/></g><g id="j"><use transform="matrix(0.011935763888888888,0,0,0.011935763888888888,0,0)" xlink:href="#Q"/><use transform="matrix(0.011935763888888888,0,0,0.011935763888888888,12.950303819444443,0)" xlink:href="#O"/><use transform="matrix(0.011935763888888888,0,0,0.011935763888888888,34.375,0)" xlink:href="#Z"/><use transform="matrix(0.011935763888888888,0,0,0.011935763888888888,47.67144097222222,0)" xlink:href="#K"/><use transform="matrix(0.011935763888888888,0,0,0.011935763888888888,53.603515625,0)" xlink:href="#X"/></g><g id="k"><use transform="matrix(0.011935763888888888,0,0,0.011935763888888888,0,0)" xlink:href="#K"/><use transform="matrix(0.011935763888888888,0,0,0.011935763888888888,5.932074652777778,0)" xlink:href="#O"/><use transform="matrix(0.011935763888888888,0,0,0.011935763888888888,27.356770833333332,0)" xlink:href="#Z"/><use transform="matrix(0.011935763888888888,0,0,0.011935763888888888,40.65321180555556,0)" xlink:href="#W"/><use transform="matrix(0.011935763888888888,0,0,0.011935763888888888,54.367404513888886,0)" xlink:href="#Q"/><use transform="matrix(0.011935763888888888,0,0,0.011935763888888888,67.31770833333333,0)" xlink:href="#S"/><use transform="matrix(0.011935763888888888,0,0,0.011935763888888888,78.34635416666666,0)" xlink:href="#N"/><use transform="matrix(0.011935763888888888,0,0,0.011935763888888888,91.82183159722221,0)" xlink:href="#R"/><use transform="matrix(0.011935763888888888,0,0,0.011935763888888888,100.09331597222221,0)" xlink:href="#X"/></g><path fill="#1d262b" d="M277-555c0 244 77 420 297 424 127 2 249-93 255-210h175C980-127 805 20 574 20 258 20 81-222 92-562c11-319 164-533 481-540 237-5 426 165 431 392H829c-7-133-115-242-256-240-209 4-296 166-296 395" id="ad"/><path fill="#1d262b" d="M497-251l268-831h189L566 0H425L33-1082h189" id="ae"/><g id="l"><use transform="matrix(0.011935763888888888,0,0,0.011935763888888888,0,0)" xlink:href="#Z"/><use transform="matrix(0.011935763888888888,0,0,0.011935763888888888,13.296440972222221,0)" xlink:href="#ad"/><use transform="matrix(0.011935763888888888,0,0,0.011935763888888888,26.09157986111111,0)" xlink:href="#T"/><use transform="matrix(0.011935763888888888,0,0,0.011935763888888888,34.07660590277777,0)" xlink:href="#K"/><use transform="matrix(0.011935763888888888,0,0,0.011935763888888888,40.00868055555555,0)" xlink:href="#ae"/><use transform="matrix(0.011935763888888888,0,0,0.011935763888888888,51.669921875,0)" xlink:href="#Z"/><use transform="matrix(0.011935763888888888,0,0,0.011935763888888888,64.96636284722221,0)" xlink:href="#T"/><use transform="matrix(0.011935763888888888,0,0,0.011935763888888888,72.95138888888889,0)" xlink:href="#Q"/><use transform="matrix(0.011935763888888888,0,0,0.011935763888888888,85.90169270833333,0)" xlink:href="#L"/></g><path fill="#1d262b" d="M442-501L326-380V0H141v-1536h185v929c135-169 291-317 436-475h225L566-630 1036 0H819" id="af"/><path fill="#1d262b" d="M494-271l252-811h198L509 167C425 381 299 474 84 421V271c167 16 242-37 283-173l41-110L22-1082h202" id="ag"/><g id="m"><use transform="matrix(0.011935763888888888,0,0,0.011935763888888888,0,0)" xlink:href="#X"/><use transform="matrix(0.011935763888888888,0,0,0.011935763888888888,5.932074652777778,0)" xlink:href="#Z"/><use transform="matrix(0.011935763888888888,0,0,0.011935763888888888,19.228515625,0)" xlink:href="#M"/><use transform="matrix(0.011935763888888888,0,0,0.011935763888888888,32.71592881944444,0)" xlink:href="#W"/><use transform="matrix(0.011935763888888888,0,0,0.011935763888888888,46.43012152777777,0)" xlink:href="#S"/><use transform="matrix(0.011935763888888888,0,0,0.011935763888888888,57.4587673611111,0)" xlink:href="#af"/><use transform="matrix(0.011935763888888888,0,0,0.011935763888888888,69.60937499999999,0)" xlink:href="#Q"/><use transform="matrix(0.011935763888888888,0,0,0.011935763888888888,82.40451388888887,0)" xlink:href="#ag"/></g><g id="n"><use transform="matrix(0.011935763888888888,0,0,0.011935763888888888,0,0)" xlink:href="#T"/><use transform="matrix(0.011935763888888888,0,0,0.011935763888888888,7.985026041666666,0)" xlink:href="#ab"/><use transform="matrix(0.011935763888888888,0,0,0.011935763888888888,21.448567708333332,0)" xlink:href="#Q"/><use transform="matrix(0.011935763888888888,0,0,0.011935763888888888,34.39887152777777,0)" xlink:href="#O"/><use transform="matrix(0.011935763888888888,0,0,0.011935763888888888,55.82356770833333,0)" xlink:href="#Q"/></g><g id="o"><use transform="matrix(0.011935763888888888,0,0,0.011935763888888888,0,0)" xlink:href="#ad"/><use transform="matrix(0.011935763888888888,0,0,0.011935763888888888,12.795138888888888,0)" xlink:href="#R"/><use transform="matrix(0.011935763888888888,0,0,0.011935763888888888,20.83984375,0)" xlink:href="#Q"/><use transform="matrix(0.011935763888888888,0,0,0.011935763888888888,33.79014756944444,0)" xlink:href="#Z"/><use transform="matrix(0.011935763888888888,0,0,0.011935763888888888,47.086588541666664,0)" xlink:href="#T"/><use transform="matrix(0.011935763888888888,0,0,0.011935763888888888,55.07161458333333,0)" xlink:href="#Q"/><use transform="matrix(0.011935763888888888,0,0,0.011935763888888888,68.02191840277777,0)" xlink:href="#L"/><use transform="matrix(0.011935763888888888,0,0,0.011935763888888888,81.80772569444444,0)" xlink:href="#S"/><use transform="matrix(0.011935763888888888,0,0,0.011935763888888888,92.83637152777777,0)" xlink:href="#P"/><use transform="matrix(0.011935763888888888,0,0,0.011935763888888888,106.41927083333333,0)" xlink:href="#ag"/></g><g id="p"><use transform="matrix(0.011935763888888888,0,0,0.011935763888888888,0,0)" xlink:href="#X"/><use transform="matrix(0.011935763888888888,0,0,0.011935763888888888,5.932074652777778,0)" xlink:href="#Z"/><use transform="matrix(0.011935763888888888,0,0,0.011935763888888888,19.228515625,0)" xlink:href="#U"/><use transform="matrix(0.011935763888888888,0,0,0.011935763888888888,31.832682291666664,0)" xlink:href="#T"/><use transform="matrix(0.011935763888888888,0,0,0.011935763888888888,39.81770833333333,0)" xlink:href="#S"/><use transform="matrix(0.011935763888888888,0,0,0.011935763888888888,50.84635416666665,0)" xlink:href="#O"/><use transform="matrix(0.011935763888888888,0,0,0.011935763888888888,72.27105034722221,0)" xlink:href="#V"/><use transform="matrix(0.011935763888888888,0,0,0.011935763888888888,86.21202256944443,0)" xlink:href="#L"/><use transform="matrix(0.011935763888888888,0,0,0.011935763888888888,99.9978298611111,0)" xlink:href="#K"/><use transform="matrix(0.011935763888888888,0,0,0.011935763888888888,105.92990451388889,0)" xlink:href="#ac"/><use transform="matrix(0.011935763888888888,0,0,0.011935763888888888,114.41623263888889,0)" xlink:href="#K"/><use transform="matrix(0.011935763888888888,0,0,0.011935763888888888,120.34830729166664,0)" xlink:href="#Q"/><use transform="matrix(0.011935763888888888,0,0,0.011935763888888888,133.2986111111111,0)" xlink:href="#L"/><use transform="matrix(0.011935763888888888,0,0,0.011935763888888888,147.08441840277774,0)" xlink:href="#S"/><use transform="matrix(0.011935763888888888,0,0,0.011935763888888888,158.1130642361111,0)" xlink:href="#P"/><use transform="matrix(0.011935763888888888,0,0,0.011935763888888888,171.69596354166666,0)" xlink:href="#ag"/></g><path fill="#1d262b" d="M629 0c-9-27-12-60-11-98C485 50 246 61 106-72c-63-60-91-135-87-224 13-257 242-368 528-366l132 2c17-63 32-161-19-202-49-39-144-32-192 6-30 24-50 56-59 99l-283 1c7-217 237-346 477-346 228 0 412 152 375 381l-83 518c-7 62-8 138 12 184l-1 19H629zM412-199c81 2 152-33 213-106l35-187c-183-10-329 22-354 175-12 72 38 117 106 118" id="ah"/><path fill="#1d262b" d="M575-1348l-47 266h180l-37 212H491l-92 542c-6 72 5 105 76 107 11 1 39-1 86-5L541-5C413 37 239 23 172-69c-42-59-72-134-56-230l93-571H56l37-212h153l46-266h283" id="ai"/><path fill="#1d262b" d="M433-962c85-95 182-141 293-140 223 5 333 179 293 420L905 0H623l115-685c16-109-21-183-124-183-76 0-143 30-200 98L278 0H-4l266-1536h283" id="aj"/><path fill="#1d262b" d="M240-950c152-162 433-205 628-78 130 85 203 260 187 475-23 313-242 582-566 573C192 12 32-209 58-524c15-179 81-318 182-426zm97 529c2 118 55 206 166 209 87 3 153-39 204-120 85-136 131-534-99-537-84-1-152 37-202 119s-72 191-69 329" id="ak"/><path fill="#1d262b" d="M301 0H17l188-1082h284zm-13-1249c-60-51-66-163-6-219 59-55 161-58 222-5 60 52 65 154 8 214-54 56-161 63-224 10" id="al"/><path fill="#1d262b" d="M462-412l309-670h314L452 163C366 357 210 490-55 419l21-220c113 12 197-17 241-99l62-115L92-1082h292" id="am"/><g id="q"><use transform="matrix(0.011935763888888888,0,0,0.011935763888888888,0,0)" xlink:href="#ah"/><use transform="matrix(0.011935763888888888,0,0,0.011935763888888888,12.830946180555555,0)" xlink:href="#G"/><use transform="matrix(0.011935763888888888,0,0,0.011935763888888888,26.222873263888886,0)" xlink:href="#ai"/><use transform="matrix(0.011935763888888888,0,0,0.011935763888888888,34.351128472222214,0)" xlink:href="#aj"/><use transform="matrix(0.011935763888888888,0,0,0.011935763888888888,47.74305555555554,0)" xlink:href="#ak"/><use transform="matrix(0.011935763888888888,0,0,0.011935763888888888,61.26627604166665,0)" xlink:href="#J"/><use transform="matrix(0.011935763888888888,0,0,0.011935763888888888,70.03906249999999,0)" xlink:href="#al"/><use transform="matrix(0.011935763888888888,0,0,0.011935763888888888,76.44856770833331,0)" xlink:href="#ai"/><use transform="matrix(0.011935763888888888,0,0,0.011935763888888888,84.57682291666664,0)" xlink:href="#am"/></g><g id="r"><use transform="matrix(0.011935763888888888,0,0,0.011935763888888888,0,0)" xlink:href="#M"/><use transform="matrix(0.011935763888888888,0,0,0.011935763888888888,13.487413194444443,0)" xlink:href="#Z"/><use transform="matrix(0.011935763888888888,0,0,0.011935763888888888,26.783854166666664,0)" xlink:href="#O"/><use transform="matrix(0.011935763888888888,0,0,0.011935763888888888,48.208550347222214,0)" xlink:href="#Q"/></g><path fill="#1d262b" d="M954-986c143 171 100 564-1 750C872-88 759 21 560 21 455 21 373-21 312-96l-99 512H-69l259-1498 260-1-19 109c78-88 170-131 276-128s186 43 247 116zM668-292c56-64 97-213 100-363 3-116-40-209-145-213-82-3-150 32-203 104l-81 446c25 67 78 102 159 105 68 2 124-25 170-79" id="an"/><path fill="#1d262b" d="M540-1103c101 3 182 43 244 121l106-554h283L907 0H655l16-116C556 27 370 67 212-32 76-117 25-342 58-566c30-205 120-393 260-479 66-41 141-60 222-58zM428-788c-54 68-105 242-98 395 6 117 54 176 142 179 79 3 148-34 207-112l77-430c-40-140-242-141-328-32" id="ao"/><path fill="#1d262b" d="M477-212c109 0 179-69 198-161l265-1C918-130 729 21 470 21 181 21 20-219 51-535c31-314 228-571 551-567 241 3 402 177 396 424H735c0-112-48-187-152-191-135-5-214 95-245 295-27 170-18 362 139 362" id="ap"/><g id="s"><use transform="matrix(0.011935763888888888,0,0,0.011935763888888888,0,0)" xlink:href="#an"/><use transform="matrix(0.011935763888888888,0,0,0.011935763888888888,13.463541666666666,0)" xlink:href="#J"/><use transform="matrix(0.011935763888888888,0,0,0.011935763888888888,21.806640625,0)" xlink:href="#ak"/><use transform="matrix(0.011935763888888888,0,0,0.011935763888888888,35.329861111111114,0)" xlink:href="#ao"/><use transform="matrix(0.011935763888888888,0,0,0.011935763888888888,48.80533854166667,0)" xlink:href="#G"/><use transform="matrix(0.011935763888888888,0,0,0.011935763888888888,62.19726562499999,0)" xlink:href="#ap"/><use transform="matrix(0.011935763888888888,0,0,0.011935763888888888,74.68207465277777,0)" xlink:href="#ai"/></g><path fill="#1d262b" d="M449-1083l-24 128c87-101 192-150 315-147 216 5 318 177 279 414L905 0H623l116-691c16-108-24-174-126-176-74-1-140 32-199 103L279 0H-3l188-1082" id="aq"/><g id="t"><use transform="matrix(0.011935763888888888,0,0,0.011935763888888888,0,0)" xlink:href="#ai"/><use transform="matrix(0.011935763888888888,0,0,0.011935763888888888,8.128255208333332,0)" xlink:href="#J"/><use transform="matrix(0.011935763888888888,0,0,0.011935763888888888,16.542968749999996,0)" xlink:href="#ah"/><use transform="matrix(0.011935763888888888,0,0,0.011935763888888888,29.373914930555546,0)" xlink:href="#aq"/><use transform="matrix(0.011935763888888888,0,0,0.011935763888888888,42.77777777777777,0)" xlink:href="#H"/><use transform="matrix(0.011935763888888888,0,0,0.011935763888888888,55.08355034722222,0)" xlink:href="#ah"/><use transform="matrix(0.011935763888888888,0,0,0.011935763888888888,67.91449652777777,0)" xlink:href="#ap"/><use transform="matrix(0.011935763888888888,0,0,0.011935763888888888,80.39930555555554,0)" xlink:href="#ai"/><use transform="matrix(0.011935763888888888,0,0,0.011935763888888888,88.52756076388887,0)" xlink:href="#al"/><use transform="matrix(0.011935763888888888,0,0,0.011935763888888888,94.9370659722222,0)" xlink:href="#ak"/><use transform="matrix(0.011935763888888888,0,0,0.011935763888888888,108.4602864583333,0)" xlink:href="#aq"/></g><g id="u"><use transform="matrix(0.011935763888888888,0,0,0.011935763888888888,0,0)" xlink:href="#R"/><use transform="matrix(0.011935763888888888,0,0,0.011935763888888888,8.04470486111111,0)" xlink:href="#Q"/><use transform="matrix(0.011935763888888888,0,0,0.011935763888888888,20.995008680555554,0)" xlink:href="#Y"/><use transform="matrix(0.011935763888888888,0,0,0.011935763888888888,34.709201388888886,0)" xlink:href="#Q"/><use transform="matrix(0.011935763888888888,0,0,0.011935763888888888,47.65950520833333,0)" xlink:href="#Z"/><use transform="matrix(0.011935763888888888,0,0,0.011935763888888888,60.95594618055555,0)" xlink:href="#T"/></g><g id="v"><use transform="matrix(0.011935763888888888,0,0,0.011935763888888888,0,0)" xlink:href="#M"/><use transform="matrix(0.011935763888888888,0,0,0.011935763888888888,13.487413194444443,0)" xlink:href="#N"/><use transform="matrix(0.011935763888888888,0,0,0.011935763888888888,26.962890625,0)" xlink:href="#O"/><use transform="matrix(0.011935763888888888,0,0,0.011935763888888888,48.38758680555556,0)" xlink:href="#P"/><use transform="matrix(0.011935763888888888,0,0,0.011935763888888888,62.101779513888886,0)" xlink:href="#Q"/><use transform="matrix(0.011935763888888888,0,0,0.011935763888888888,75.05208333333333,0)" xlink:href="#R"/></g><path fill="#1d262b" d="M743 226h-886l40-226h885" id="ar"/><g id="w"><use transform="matrix(0.011935763888888888,0,0,0.011935763888888888,0,0)" xlink:href="#ah"/><use transform="matrix(0.011935763888888888,0,0,0.011935763888888888,12.830946180555555,0)" xlink:href="#G"/><use transform="matrix(0.011935763888888888,0,0,0.011935763888888888,26.222873263888886,0)" xlink:href="#ai"/><use transform="matrix(0.011935763888888888,0,0,0.011935763888888888,34.351128472222214,0)" xlink:href="#aj"/><use transform="matrix(0.011935763888888888,0,0,0.011935763888888888,47.74305555555554,0)" xlink:href="#ak"/><use transform="matrix(0.011935763888888888,0,0,0.011935763888888888,61.26627604166665,0)" xlink:href="#J"/><use transform="matrix(0.011935763888888888,0,0,0.011935763888888888,70.03906249999999,0)" xlink:href="#al"/><use transform="matrix(0.011935763888888888,0,0,0.011935763888888888,76.44856770833331,0)" xlink:href="#ai"/><use transform="matrix(0.011935763888888888,0,0,0.011935763888888888,84.57682291666664,0)" xlink:href="#am"/><use transform="matrix(0.011935763888888888,0,0,0.011935763888888888,96.59613715277776,0)" xlink:href="#ar"/><use transform="matrix(0.011935763888888888,0,0,0.011935763888888888,107.30251736111109,0)" xlink:href="#an"/><use transform="matrix(0.011935763888888888,0,0,0.011935763888888888,120.76605902777774,0)" xlink:href="#J"/><use transform="matrix(0.011935763888888888,0,0,0.011935763888888888,129.1091579861111,0)" xlink:href="#ak"/><use transform="matrix(0.011935763888888888,0,0,0.011935763888888888,142.6323784722222,0)" xlink:href="#ao"/><use transform="matrix(0.011935763888888888,0,0,0.011935763888888888,156.10785590277774,0)" xlink:href="#G"/><use transform="matrix(0.011935763888888888,0,0,0.011935763888888888,169.4997829861111,0)" xlink:href="#ap"/><use transform="matrix(0.011935763888888888,0,0,0.011935763888888888,181.98459201388886,0)" xlink:href="#ai"/></g><g id="x"><use transform="matrix(0.011935763888888888,0,0,0.011935763888888888,0,0)" xlink:href="#Z"/><use transform="matrix(0.011935763888888888,0,0,0.011935763888888888,13.296440972222221,0)" xlink:href="#N"/><use transform="matrix(0.011935763888888888,0,0,0.011935763888888888,26.771918402777775,0)" xlink:href="#T"/><use transform="matrix(0.011935763888888888,0,0,0.011935763888888888,34.75694444444444,0)" xlink:href="#ab"/><use transform="matrix(0.011935763888888888,0,0,0.011935763888888888,48.22048611111111,0)" xlink:href="#V"/><use transform="matrix(0.011935763888888888,0,0,0.011935763888888888,62.16145833333333,0)" xlink:href="#R"/><use transform="matrix(0.011935763888888888,0,0,0.011935763888888888,70.43294270833333,0)" xlink:href="#K"/><use transform="matrix(0.011935763888888888,0,0,0.011935763888888888,76.3650173611111,0)" xlink:href="#T"/><use transform="matrix(0.011935763888888888,0,0,0.011935763888888888,84.35004340277777,0)" xlink:href="#ag"/><use transform="matrix(0.011935763888888888,0,0,0.011935763888888888,95.9157986111111,0)" xlink:href="#S"/><use transform="matrix(0.011935763888888888,0,0,0.011935763888888888,106.94444444444444,0)" xlink:href="#M"/><use transform="matrix(0.011935763888888888,0,0,0.011935763888888888,120.43185763888889,0)" xlink:href="#Z"/><use transform="matrix(0.011935763888888888,0,0,0.011935763888888888,133.7282986111111,0)" xlink:href="#O"/><use transform="matrix(0.011935763888888888,0,0,0.011935763888888888,155.15299479166663,0)" xlink:href="#Q"/></g><g id="y"><use transform="matrix(0.011935763888888888,0,0,0.011935763888888888,0,0)" xlink:href="#Y"/><use transform="matrix(0.011935763888888888,0,0,0.011935763888888888,13.714192708333332,0)" xlink:href="#R"/><use transform="matrix(0.011935763888888888,0,0,0.011935763888888888,21.746961805555554,0)" xlink:href="#V"/><use transform="matrix(0.011935763888888888,0,0,0.011935763888888888,35.68793402777777,0)" xlink:href="#L"/><use transform="matrix(0.011935763888888888,0,0,0.011935763888888888,49.47374131944443,0)" xlink:href="#N"/><use transform="matrix(0.011935763888888888,0,0,0.011935763888888888,62.94921874999999,0)" xlink:href="#ad"/><use transform="matrix(0.011935763888888888,0,0,0.011935763888888888,75.74435763888889,0)" xlink:href="#T"/><use transform="matrix(0.011935763888888888,0,0,0.011935763888888888,83.72938368055556,0)" xlink:href="#S"/><use transform="matrix(0.011935763888888888,0,0,0.011935763888888888,94.75802951388889,0)" xlink:href="#K"/><use transform="matrix(0.011935763888888888,0,0,0.011935763888888888,100.69010416666666,0)" xlink:href="#L"/></g><g id="z"><use transform="matrix(0.011935763888888888,0,0,0.011935763888888888,0,0)" xlink:href="#an"/><use transform="matrix(0.011935763888888888,0,0,0.011935763888888888,13.463541666666666,0)" xlink:href="#J"/><use transform="matrix(0.011935763888888888,0,0,0.011935763888888888,21.806640625,0)" xlink:href="#ak"/><use transform="matrix(0.011935763888888888,0,0,0.011935763888888888,35.329861111111114,0)" xlink:href="#ao"/><use transform="matrix(0.011935763888888888,0,0,0.011935763888888888,48.80533854166667,0)" xlink:href="#G"/><use transform="matrix(0.011935763888888888,0,0,0.011935763888888888,62.19726562499999,0)" xlink:href="#ap"/><use transform="matrix(0.011935763888888888,0,0,0.011935763888888888,74.68207465277777,0)" xlink:href="#ai"/><use transform="matrix(0.011935763888888888,0,0,0.011935763888888888,82.8103298611111,0)" xlink:href="#ar"/><use transform="matrix(0.011935763888888888,0,0,0.011935763888888888,93.51671006944443,0)" xlink:href="#ai"/><use transform="matrix(0.011935763888888888,0,0,0.011935763888888888,101.64496527777774,0)" xlink:href="#J"/><use transform="matrix(0.011935763888888888,0,0,0.011935763888888888,110.05967881944441,0)" xlink:href="#ah"/><use transform="matrix(0.011935763888888888,0,0,0.011935763888888888,122.89062499999997,0)" xlink:href="#aq"/><use transform="matrix(0.011935763888888888,0,0,0.011935763888888888,136.2944878472222,0)" xlink:href="#H"/><use transform="matrix(0.011935763888888888,0,0,0.011935763888888888,148.60026041666663,0)" xlink:href="#ah"/><use transform="matrix(0.011935763888888888,0,0,0.011935763888888888,161.43120659722217,0)" xlink:href="#ap"/><use transform="matrix(0.011935763888888888,0,0,0.011935763888888888,173.91601562499994,0)" xlink:href="#ai"/><use transform="matrix(0.011935763888888888,0,0,0.011935763888888888,182.0442708333333,0)" xlink:href="#al"/><use transform="matrix(0.011935763888888888,0,0,0.011935763888888888,188.45377604166663,0)" xlink:href="#ak"/><use transform="matrix(0.011935763888888888,0,0,0.011935763888888888,201.97699652777777,0)" xlink:href="#aq"/></g><g id="A"><use transform="matrix(0.011935763888888888,0,0,0.011935763888888888,0,0)" xlink:href="#Z"/><use transform="matrix(0.011935763888888888,0,0,0.011935763888888888,13.296440972222221,0)" xlink:href="#N"/><use transform="matrix(0.011935763888888888,0,0,0.011935763888888888,26.771918402777775,0)" xlink:href="#T"/><use transform="matrix(0.011935763888888888,0,0,0.011935763888888888,34.75694444444444,0)" xlink:href="#ab"/><use transform="matrix(0.011935763888888888,0,0,0.011935763888888888,48.22048611111111,0)" xlink:href="#V"/><use transform="matrix(0.011935763888888888,0,0,0.011935763888888888,62.16145833333333,0)" xlink:href="#R"/><use transform="matrix(0.011935763888888888,0,0,0.011935763888888888,70.43294270833333,0)" xlink:href="#K"/><use transform="matrix(0.011935763888888888,0,0,0.011935763888888888,76.3650173611111,0)" xlink:href="#T"/><use transform="matrix(0.011935763888888888,0,0,0.011935763888888888,84.35004340277777,0)" xlink:href="#ag"/><use transform="matrix(0.011935763888888888,0,0,0.011935763888888888,95.9157986111111,0)" xlink:href="#S"/><use transform="matrix(0.011935763888888888,0,0,0.011935763888888888,106.94444444444444,0)" xlink:href="#M"/><use transform="matrix(0.011935763888888888,0,0,0.011935763888888888,120.43185763888889,0)" xlink:href="#Z"/><use transform="matrix(0.011935763888888888,0,0,0.011935763888888888,133.7282986111111,0)" xlink:href="#O"/><use transform="matrix(0.011935763888888888,0,0,0.011935763888888888,155.15299479166663,0)" xlink:href="#Q"/></g><g id="B"><use transform="matrix(0.011935763888888888,0,0,0.011935763888888888,0,0)" xlink:href="#Y"/><use transform="matrix(0.011935763888888888,0,0,0.011935763888888888,13.714192708333332,0)" xlink:href="#R"/><use transform="matrix(0.011935763888888888,0,0,0.011935763888888888,21.746961805555554,0)" xlink:href="#V"/><use transform="matrix(0.011935763888888888,0,0,0.011935763888888888,35.68793402777777,0)" xlink:href="#L"/><use transform="matrix(0.011935763888888888,0,0,0.011935763888888888,49.47374131944443,0)" xlink:href="#N"/><use transform="matrix(0.011935763888888888,0,0,0.011935763888888888,62.94921874999999,0)" xlink:href="#ad"/><use transform="matrix(0.011935763888888888,0,0,0.011935763888888888,75.74435763888889,0)" xlink:href="#T"/><use transform="matrix(0.011935763888888888,0,0,0.011935763888888888,83.72938368055556,0)" xlink:href="#S"/><use transform="matrix(0.011935763888888888,0,0,0.011935763888888888,94.75802951388889,0)" xlink:href="#K"/><use transform="matrix(0.011935763888888888,0,0,0.011935763888888888,100.69010416666666,0)" xlink:href="#L"/></g><g id="C"><use transform="matrix(0.011935763888888888,0,0,0.011935763888888888,0,0)" xlink:href="#T"/><use transform="matrix(0.011935763888888888,0,0,0.011935763888888888,7.985026041666666,0)" xlink:href="#R"/><use transform="matrix(0.011935763888888888,0,0,0.011935763888888888,15.77907986111111,0)" xlink:href="#Z"/><use transform="matrix(0.011935763888888888,0,0,0.011935763888888888,29.075520833333332,0)" xlink:href="#M"/><use transform="matrix(0.011935763888888888,0,0,0.011935763888888888,42.56293402777777,0)" xlink:href="#U"/><use transform="matrix(0.011935763888888888,0,0,0.011935763888888888,55.16710069444444,0)" xlink:href="#Z"/><use transform="matrix(0.011935763888888888,0,0,0.011935763888888888,68.46354166666666,0)" xlink:href="#ad"/><use transform="matrix(0.011935763888888888,0,0,0.011935763888888888,81.25868055555554,0)" xlink:href="#T"/><use transform="matrix(0.011935763888888888,0,0,0.011935763888888888,89.24370659722221,0)" xlink:href="#K"/><use transform="matrix(0.011935763888888888,0,0,0.011935763888888888,95.17578124999999,0)" xlink:href="#V"/><use transform="matrix(0.011935763888888888,0,0,0.011935763888888888,109.1167534722222,0)" xlink:href="#M"/><use transform="matrix(0.011935763888888888,0,0,0.011935763888888888,122.60416666666664,0)" xlink:href="#S"/><use transform="matrix(0.011935763888888888,0,0,0.011935763888888888,133.63281249999997,0)" xlink:href="#K"/><use transform="matrix(0.011935763888888888,0,0,0.011935763888888888,139.56488715277774,0)" xlink:href="#L"/></g><g id="D"><use transform="matrix(0.011935763888888888,0,0,0.011935763888888888,0,0)" xlink:href="#U"/><use transform="matrix(0.011935763888888888,0,0,0.011935763888888888,12.604166666666666,0)" xlink:href="#T"/><use transform="matrix(0.011935763888888888,0,0,0.011935763888888888,20.589192708333332,0)" xlink:href="#R"/><use transform="matrix(0.011935763888888888,0,0,0.011935763888888888,28.860677083333332,0)" xlink:href="#K"/><use transform="matrix(0.011935763888888888,0,0,0.011935763888888888,34.79275173611111,0)" xlink:href="#M"/><use transform="matrix(0.011935763888888888,0,0,0.011935763888888888,48.28016493055555,0)" xlink:href="#W"/></g><g id="E"><use transform="matrix(0.011935763888888888,0,0,0.011935763888888888,0,0)" xlink:href="#G"/><use transform="matrix(0.011935763888888888,0,0,0.011935763888888888,13.391927083333332,0)" xlink:href="#H"/><use transform="matrix(0.011935763888888888,0,0,0.011935763888888888,25.697699652777775,0)" xlink:href="#I"/><use transform="matrix(0.011935763888888888,0,0,0.011935763888888888,38.63606770833333,0)" xlink:href="#J"/><use transform="matrix(0.011935763888888888,0,0,0.011935763888888888,47.40885416666666,0)" xlink:href="#ar"/><use transform="matrix(0.011935763888888888,0,0,0.011935763888888888,58.115234374999986,0)" xlink:href="#ah"/><use transform="matrix(0.011935763888888888,0,0,0.011935763888888888,70.94618055555554,0)" xlink:href="#G"/><use transform="matrix(0.011935763888888888,0,0,0.011935763888888888,84.33810763888887,0)" xlink:href="#ai"/><use transform="matrix(0.011935763888888888,0,0,0.011935763888888888,92.4663628472222,0)" xlink:href="#aj"/><use transform="matrix(0.011935763888888888,0,0,0.011935763888888888,105.85828993055553,0)" xlink:href="#ak"/><use transform="matrix(0.011935763888888888,0,0,0.011935763888888888,119.38151041666664,0)" xlink:href="#J"/><use transform="matrix(0.011935763888888888,0,0,0.011935763888888888,128.15429687499997,0)" xlink:href="#al"/><use transform="matrix(0.011935763888888888,0,0,0.011935763888888888,134.56380208333331,0)" xlink:href="#ai"/><use transform="matrix(0.011935763888888888,0,0,0.011935763888888888,142.69205729166666,0)" xlink:href="#am"/></g><g id="F"><use transform="matrix(0.011935763888888888,0,0,0.011935763888888888,0,0)" xlink:href="#N"/><use transform="matrix(0.011935763888888888,0,0,0.011935763888888888,13.475477430555555,0)" xlink:href="#U"/><use transform="matrix(0.011935763888888888,0,0,0.011935763888888888,26.07964409722222,0)" xlink:href="#Q"/><use transform="matrix(0.011935763888888888,0,0,0.011935763888888888,39.029947916666664,0)" xlink:href="#R"/><use transform="matrix(0.011935763888888888,0,0,0.011935763888888888,47.301432291666664,0)" xlink:href="#S"/><use transform="matrix(0.011935763888888888,0,0,0.011935763888888888,58.33007812499999,0)" xlink:href="#K"/><use transform="matrix(0.011935763888888888,0,0,0.011935763888888888,64.26215277777777,0)" xlink:href="#L"/></g></defs></g></svg>